<svg xmlns="http://www.w3.org/2000/svg" viewBox="0 0 1040.43 232.63"><defs><style>.cls-1,.cls-2,.cls-3{fill:#fff;}.cls-2{font-size:80.87px;font-family:ArialRoundedMTBold, Arial Rounded MT Bold;}.cls-3{font-size:36.31px;font-family:ArialMT, Arial;}</style></defs><g id="Layer_2" data-name="Layer 2"><g id="Layer_1-2" data-name="Layer 1"><path class="cls-1" d="M0,99.39V56.22L98.48,0,197,57.45V190.38H135.15L114.44,160H96.66v30.35H64.15L80.7,147.26h40.58a14.13,14.13,0,0,0,14.13-14.13h0A14.13,14.13,0,0,0,121.28,119H78.87l-31,71.12-12.27.26L0,104.74H16l24.62,61.67,26.44-62h55.27A28.62,28.62,0,0,1,150.91,133v3.29a21,21,0,0,1-21,21h0l13.68,19.15H181V65.2L98.48,18.4,16.87,66.11l-.46,33.28Z"/><rect class="cls-1" x="84.8" y="54.71" width="12.65" height="12.65"/><rect class="cls-1" x="100.42" y="54.71" width="12.65" height="12.65"/><rect class="cls-1" x="100.42" y="70.33" width="12.65" height="12.65"/><rect class="cls-1" x="84.8" y="70.33" width="12.65" height="12.65"/><text class="cls-2" transform="translate(228.69 118.53)">VR HOUSE BUILDER</text><text class="cls-3" transform="translate(228.75 162.39)">A Virtual Reality House Building Tool</text></g></g></svg>